<?xml version="1.0" encoding="UTF-8" standalone="no"?>
<!DOCTYPE svg PUBLIC "-//W3C//DTD SVG 1.1//EN" "http://www.w3.org/Graphics/SVG/1.1/DTD/svg11.dtd">
<svg width="100%" height="100%" viewBox="0 0 128 128" version="1.1" xmlns="http://www.w3.org/2000/svg" xmlns:xlink="http://www.w3.org/1999/xlink" xml:space="preserve" xmlns:serif="http://www.serif.com/" style="fill-rule:evenodd;clip-rule:evenodd;stroke-linejoin:round;stroke-miterlimit:2;">
    <g>
        <path d="M118.637,52.345C122.525,55.952 125.698,59.884 128,64C118.266,81.405 92.94,95.536 64,95.536C50.9,95.536 38.54,92.64 28.031,87.856L33.306,85.789C42.496,89.407 52.981,91.536 64,91.536C90.211,91.536 113.4,79.492 123.337,64C121.052,60.438 118.067,57.058 114.505,53.965L118.637,52.345ZM11.67,77.687C6.721,73.546 2.742,68.903 -0,64C9.734,46.595 35.06,32.464 64,32.464C78.521,32.464 92.133,36.022 103.321,41.766L98.297,43.735C88.288,39.198 76.487,36.464 64,36.464C37.789,36.464 14.6,48.508 4.663,64C7.448,68.342 11.273,72.412 15.914,76.023L11.67,77.687ZM107.523,56.701C110.324,58.975 112.624,61.434 114.321,64C107.975,73.594 93.202,81.692 75.37,84.179C82.22,80.308 86.908,73.05 87.151,64.686L107.523,56.701ZM47.484,80.232C49.001,81.775 50.733,83.107 52.63,84.179C49.173,83.697 45.83,83.004 42.642,82.13L47.484,80.232ZM23.041,73.23C19.063,70.444 15.869,67.311 13.679,64C18.889,56.123 29.779,49.255 43.378,45.672C45.632,42.734 49.178,40.839 53.163,40.839C59.965,40.839 65.488,46.361 65.488,53.163C65.488,54.432 65.296,55.657 64.939,56.809L47.004,63.838C44.616,62.457 42.734,60.298 41.705,57.708C41.141,59.709 40.839,61.82 40.839,64C40.839,64.747 40.874,65.485 40.943,66.214L23.041,73.23ZM82.417,49.959C80.513,47.467 78.115,45.372 75.37,43.821C80.383,44.52 85.155,45.663 89.565,47.158L82.417,49.959Z" style="fill:white;"/>
        <g transform="matrix(0.702276,1.79187,-1.01529,0.397914,118.522,11.2072)">
            <rect x="13.679" y="6.082" width="4.467" height="115.705" style="fill:white;"/>
        </g>
    </g>
</svg>
