<?xml version="1.0" encoding="UTF-8" standalone="no"?>
<!DOCTYPE svg PUBLIC "-//W3C//DTD SVG 1.1//EN" "http://www.w3.org/Graphics/SVG/1.1/DTD/svg11.dtd">
<svg width="100%" height="100%" viewBox="0 0 128 128" version="1.1" xmlns="http://www.w3.org/2000/svg" xmlns:xlink="http://www.w3.org/1999/xlink" xml:space="preserve" xmlns:serif="http://www.serif.com/" style="fill-rule:evenodd;clip-rule:evenodd;stroke-linejoin:round;stroke-miterlimit:2;">
    <g>
        <g transform="matrix(3.03566e-16,4.95761,-2.9687,1.81781e-16,239.061,-107.819)">
            <path d="M34.658,37.411C38.168,40.689 41.019,49.221 41.019,58.969C41.019,68.717 38.168,77.248 34.658,80.527C31.147,77.248 28.297,68.717 28.297,58.969C28.297,49.221 31.147,40.689 34.658,37.411ZM34.658,38.981C31.533,42.329 29.103,50.14 29.103,58.969C29.103,67.798 31.533,75.609 34.658,78.956C37.783,75.609 40.212,67.798 40.212,58.969C40.212,50.14 37.783,42.329 34.658,38.981Z" style="fill:white;"/>
        </g>
        <path d="M52.63,43.821C45.593,47.797 40.839,55.348 40.839,64C40.839,72.652 45.593,80.203 52.63,84.179C34.798,81.692 20.025,73.594 13.679,64C20.025,54.406 34.798,46.308 52.63,43.821ZM75.37,84.179C82.407,80.203 87.161,72.652 87.161,64C87.161,55.348 82.407,47.797 75.37,43.821C93.202,46.308 107.975,54.406 114.321,64C107.975,73.594 93.202,81.692 75.37,84.179Z" style="fill:white;"/>
        <g transform="matrix(0.633463,0,0,0.633463,20.8598,11.949)">
            <circle cx="50.995" cy="65.062" r="19.456" style="fill:white;"/>
        </g>
    </g>
</svg>
