<?xml version="1.0" encoding="UTF-8" standalone="no"?>
<!DOCTYPE svg PUBLIC "-//W3C//DTD SVG 1.1//EN" "http://www.w3.org/Graphics/SVG/1.1/DTD/svg11.dtd">
<svg width="100%" height="100%" viewBox="0 0 128 128" version="1.1" xmlns="http://www.w3.org/2000/svg" xmlns:xlink="http://www.w3.org/1999/xlink" xml:space="preserve" xmlns:serif="http://www.serif.com/" style="fill-rule:evenodd;clip-rule:evenodd;stroke-linejoin:round;stroke-miterlimit:2;">
    <path d="M0,64.002C0,64.001 0,64.001 0,64C0,28.677 28.677,0 64,0C99.323,0 128,28.677 128,64C128,99.323 99.323,128 64,128C28.678,128 0.001,99.324 0,64.002ZM0,64.002C9.735,81.403 35.061,95.537 64,95.537C92.939,95.537 118.268,81.403 127.999,64.002C118.268,46.596 92.939,32.466 64,32.466C35.061,32.466 9.735,46.596 0,64.002ZM123.338,64.002C113.399,79.494 90.21,91.536 64,91.536C37.789,91.536 14.601,79.494 4.664,64.002C14.601,48.509 37.789,36.462 64,36.462C90.21,36.462 113.399,48.509 123.338,64.002ZM41.705,57.709C43.516,62.264 47.966,65.488 53.163,65.488C59.965,65.488 65.488,59.966 65.488,53.163C65.488,46.361 59.965,40.839 53.163,40.839C49.178,40.839 45.632,42.734 43.378,45.672C29.779,49.255 18.889,56.123 13.679,64C20.025,73.594 34.798,81.692 52.63,84.179C45.593,80.203 40.839,72.652 40.839,64C40.839,61.82 41.141,59.709 41.705,57.709ZM75.37,84.179C93.202,81.692 107.975,73.594 114.321,64C107.975,54.406 93.202,46.308 75.37,43.821C82.407,47.797 87.161,55.348 87.161,64C87.161,72.652 82.407,80.203 75.37,84.179Z" style="fill:white;"/>
</svg>
