<?xml version="1.0" encoding="UTF-8" standalone="no"?>
<!DOCTYPE svg PUBLIC "-//W3C//DTD SVG 1.1//EN" "http://www.w3.org/Graphics/SVG/1.1/DTD/svg11.dtd">
<svg width="100%" height="100%" viewBox="0 0 100 100" version="1.1" xmlns="http://www.w3.org/2000/svg" xmlns:xlink="http://www.w3.org/1999/xlink" xml:space="preserve" xmlns:serif="http://www.serif.com/" style="fill-rule:evenodd;clip-rule:evenodd;stroke-linejoin:round;stroke-miterlimit:2;">
    <g transform="matrix(1,0,0,1,0,17.0126)">
        <g transform="matrix(1,0,0,0.920014,0,0.0664385)">
            <path d="M100,6.934L100,64.633C100,68.001 97.484,70.736 94.385,70.736L5.615,70.736C2.516,70.736 0,68.001 0,64.633L0,6.934C0,3.565 2.516,0.831 5.615,0.831L94.385,0.831C97.484,0.831 100,3.565 100,6.934ZM97,6.934C97,5.365 95.828,4.091 94.385,4.091L5.615,4.091C4.172,4.091 3,5.365 3,6.934L3,64.633C3,66.201 4.172,67.475 5.615,67.475L94.385,67.475C95.828,67.475 97,66.201 97,64.633L97,6.934Z"/>
        </g>
        <g>
            <g transform="matrix(0.85863,0,0,0.718169,7.06852,7.28906)">
                <path d="M100,6.934L100,64.633C100,68.001 97.713,70.736 94.895,70.736L5.105,70.736C2.287,70.736 0,68.001 0,64.633L0,6.934C0,3.565 2.287,0.831 5.105,0.831L94.895,0.831C97.713,0.831 100,3.565 100,6.934ZM98.253,6.934C98.253,4.718 96.749,2.919 94.895,2.919L5.105,2.919C3.251,2.919 1.747,4.718 1.747,6.934L1.747,64.633C1.747,66.848 3.251,68.647 5.105,68.647L94.895,68.647C96.749,68.647 98.253,66.848 98.253,64.633L98.253,6.934Z"/>
            </g>
            <g transform="matrix(0.792607,0.792607,-1.5803,1.5803,121.363,-119.765)">
                <path d="M67.005,68.253L67.005,73.797L50,65.268L67.005,56.739L67.005,62.283L85.676,62.283C89.009,62.283 91.712,63.638 91.712,65.31C91.712,65.31 91.712,65.311 91.712,65.311C91.712,66.091 91.094,66.84 89.993,67.391C88.893,67.943 87.401,68.253 85.845,68.253L67.005,68.253Z"/>
            </g>
        </g>
    </g>
</svg>
