<?xml version="1.0" encoding="UTF-8" standalone="no"?>
<!DOCTYPE svg PUBLIC "-//W3C//DTD SVG 1.1//EN" "http://www.w3.org/Graphics/SVG/1.1/DTD/svg11.dtd">
<svg width="100%" height="100%" viewBox="0 0 100 100" version="1.1" xmlns="http://www.w3.org/2000/svg" xmlns:xlink="http://www.w3.org/1999/xlink" xml:space="preserve" xmlns:serif="http://www.serif.com/" style="fill-rule:evenodd;clip-rule:evenodd;stroke-linecap:round;stroke-linejoin:round;stroke-miterlimit:1.5;">
    <g transform="matrix(1,0,0,1,0,17.0126)">
        <g transform="matrix(1,0,0,0.920014,0,0.0664385)">
            <path d="M100,6.934L100,64.633C100,68.001 97.484,70.736 94.385,70.736L5.615,70.736C2.516,70.736 0,68.001 0,64.633L0,6.934C0,3.565 2.516,0.831 5.615,0.831L94.385,0.831C97.484,0.831 100,3.565 100,6.934ZM97,6.934C97,5.365 95.828,4.091 94.385,4.091L5.615,4.091C4.172,4.091 3,5.365 3,6.934L3,64.633C3,66.201 4.172,67.475 5.615,67.475L94.385,67.475C95.828,67.475 97,66.201 97,64.633L97,6.934Z"/>
        </g>
        <g transform="matrix(1,0,0,1,0,-17.0126)">
            <path d="M69.359,19.341L69.359,79.364" style="fill:none;stroke:black;stroke-width:1.5px;"/>
        </g>
    </g>
</svg>
