<?xml version="1.0" encoding="UTF-8" standalone="no"?>
<!DOCTYPE svg PUBLIC "-//W3C//DTD SVG 1.1//EN" "http://www.w3.org/Graphics/SVG/1.1/DTD/svg11.dtd">
<svg width="100%" height="100%" viewBox="0 0 128 128" version="1.1" xmlns="http://www.w3.org/2000/svg" xmlns:xlink="http://www.w3.org/1999/xlink" xml:space="preserve" xmlns:serif="http://www.serif.com/" style="fill-rule:evenodd;clip-rule:evenodd;stroke-linejoin:round;stroke-miterlimit:2;">
    <g>
        <path d="M16,21L16,25.823C16,31.591 20.683,36.274 26.451,36.274C32.22,36.274 36.903,31.591 36.903,25.823L36.903,21L76.097,21L76.097,25.823C76.097,31.591 80.78,36.274 86.549,36.274C92.317,36.274 97,31.591 97,25.823L97,21L102.112,21C108.121,21 113,25.879 113,31.888L113,68.226C110.528,66.646 107.828,65.392 104.961,64.525L104.961,61.185C104.961,60.073 104.058,59.17 102.946,59.17L86.146,59.17C85.034,59.17 84.131,60.073 84.131,61.185L84.131,65.222C82.326,65.903 80.597,66.742 78.961,67.72L78.961,61.185C78.961,60.073 78.058,59.17 76.946,59.17L60.146,59.17C59.034,59.17 58.131,60.073 58.131,61.185L58.131,72.68C58.131,73.792 59.034,74.695 60.146,74.695L70.764,74.695C69.934,75.679 69.162,76.713 68.453,77.793L60.146,77.793C59.034,77.793 58.131,78.696 58.131,79.808L58.131,91.302C58.131,92.414 59.034,93.317 60.146,93.317L63.22,93.317C63.169,94.062 63.143,94.814 63.143,95.571C63.143,95.854 63.146,96.135 63.154,96.415L60.146,96.415C59.034,96.415 58.131,97.318 58.131,98.43L58.131,109.925C58.131,111.037 59.034,111.94 60.146,111.94L67.577,111.94C68.866,114.138 70.406,116.171 72.159,118L10.888,118C4.879,118 0,113.121 0,107.112L0,31.888C0,25.879 4.879,21 10.888,21L16,21ZM113,74.042C119.267,79.123 123.275,86.883 123.275,95.571C123.275,110.861 110.861,123.275 95.571,123.275C89.5,123.275 83.882,121.318 79.315,118C76.985,116.308 74.928,114.261 73.224,111.94C70.013,107.564 68.054,102.212 67.88,96.415C67.872,96.135 67.868,95.854 67.868,95.571C67.868,94.813 67.898,94.061 67.958,93.317C68.433,87.433 70.75,82.065 74.331,77.793C75.281,76.659 76.32,75.603 77.437,74.634C78.021,74.488 78.504,74.087 78.761,73.556C80.415,72.29 82.215,71.207 84.131,70.336C87.619,68.751 91.493,67.868 95.571,67.868C98.867,67.868 102.028,68.444 104.961,69.502C107.903,70.563 110.615,72.109 113,74.042ZM93,25.823C93,29.383 90.109,32.274 86.549,32.274C82.988,32.274 80.097,29.383 80.097,25.823L80.097,10.124C80.097,6.563 82.988,3.672 86.549,3.672C90.109,3.672 93,6.563 93,10.124L93,25.823ZM32.903,25.823C32.903,29.383 30.012,32.274 26.451,32.274C22.891,32.274 20,29.383 20,25.823L20,10.124C20,6.563 22.891,3.672 26.451,3.672C30.012,3.672 32.903,6.563 32.903,10.124L32.903,25.823ZM113,92.749C112.276,92.022 111.273,91.571 110.167,91.571L99.571,91.571C99.571,91.571 99.571,82.535 99.571,77.793C99.571,76.106 99.571,74.962 99.571,74.962C99.571,74.872 99.568,74.783 99.563,74.695C99.425,72.611 97.689,70.962 95.571,70.962C93.454,70.962 91.718,72.611 91.58,74.695C91.574,74.783 91.571,74.872 91.571,74.962L91.571,95.571C91.571,95.861 91.602,96.143 91.661,96.415C92.048,98.219 93.652,99.571 95.571,99.571L110.167,99.571C111.273,99.571 112.276,99.121 113,98.394C113.721,97.67 114.167,96.673 114.167,95.571C114.167,94.47 113.721,93.472 113,92.749ZM28.961,61.185C28.961,60.073 28.058,59.17 26.946,59.17L10.146,59.17C9.034,59.17 8.131,60.073 8.131,61.185L8.131,72.68C8.131,73.792 9.034,74.695 10.146,74.695L26.946,74.695C28.058,74.695 28.961,73.792 28.961,72.68L28.961,61.185ZM28.961,98.43C28.961,97.318 28.058,96.415 26.946,96.415L10.146,96.415C9.034,96.415 8.131,97.318 8.131,98.43L8.131,109.925C8.131,111.037 9.034,111.94 10.146,111.94L26.946,111.94C28.058,111.94 28.961,111.037 28.961,109.925L28.961,98.43ZM53.961,79.808C53.961,78.696 53.058,77.793 51.946,77.793L35.146,77.793C34.034,77.793 33.131,78.696 33.131,79.808L33.131,91.302C33.131,92.414 34.034,93.317 35.146,93.317L51.946,93.317C53.058,93.317 53.961,92.414 53.961,91.302L53.961,79.808ZM28.961,79.808C28.961,78.696 28.058,77.793 26.946,77.793L10.146,77.793C9.034,77.793 8.131,78.696 8.131,79.808L8.131,91.302C8.131,92.414 9.034,93.317 10.146,93.317L26.946,93.317C28.058,93.317 28.961,92.414 28.961,91.302L28.961,79.808ZM53.961,61.185C53.961,60.073 53.058,59.17 51.946,59.17L35.146,59.17C34.034,59.17 33.131,60.073 33.131,61.185L33.131,72.68C33.131,73.792 34.034,74.695 35.146,74.695L51.946,74.695C53.058,74.695 53.961,73.792 53.961,72.68L53.961,61.185ZM53.961,98.43C53.961,97.318 53.058,96.415 51.946,96.415L35.146,96.415C34.034,96.415 33.131,97.318 33.131,98.43L33.131,109.925C33.131,111.037 34.034,111.94 35.146,111.94L51.946,111.94C53.058,111.94 53.961,111.037 53.961,109.925L53.961,98.43ZM28.961,42.562C28.961,41.45 28.058,40.547 26.946,40.547L10.146,40.547C9.034,40.547 8.131,41.45 8.131,42.562L8.131,54.057C8.131,55.169 9.034,56.072 10.146,56.072L26.946,56.072C28.058,56.072 28.961,55.169 28.961,54.057L28.961,42.562ZM53.961,42.562C53.961,41.45 53.058,40.547 51.946,40.547L35.146,40.547C34.034,40.547 33.131,41.45 33.131,42.562L33.131,54.057C33.131,55.169 34.034,56.072 35.146,56.072L51.946,56.072C53.058,56.072 53.961,55.169 53.961,54.057L53.961,42.562ZM78.961,42.562C78.961,41.45 78.058,40.547 76.946,40.547L60.146,40.547C59.034,40.547 58.131,41.45 58.131,42.562L58.131,54.057C58.131,55.169 59.034,56.072 60.146,56.072L76.946,56.072C78.058,56.072 78.961,55.169 78.961,54.057L78.961,42.562ZM104.961,42.562C104.961,41.45 104.058,40.547 102.946,40.547L86.146,40.547C85.034,40.547 84.131,41.45 84.131,42.562L84.131,54.057C84.131,55.169 85.034,56.072 86.146,56.072L102.946,56.072C104.058,56.072 104.961,55.169 104.961,54.057L104.961,42.562Z" style="fill:white;"/>
    </g>
</svg>
