<?xml version="1.0" encoding="UTF-8" standalone="no"?>
<!DOCTYPE svg PUBLIC "-//W3C//DTD SVG 1.1//EN" "http://www.w3.org/Graphics/SVG/1.1/DTD/svg11.dtd">
<svg width="100%" height="100%" viewBox="0 0 128 128" version="1.1" xmlns="http://www.w3.org/2000/svg" xmlns:xlink="http://www.w3.org/1999/xlink" xml:space="preserve" xmlns:serif="http://www.serif.com/" style="fill-rule:evenodd;clip-rule:evenodd;stroke-linejoin:round;stroke-miterlimit:2;">
    <path d="M0,64.002C0,64.001 0,64.001 0,64C0,28.677 28.677,0 64,0C99.323,0 128,28.677 128,64C128,99.323 99.323,128 64,128C28.678,128 0.001,99.324 0,64.002ZM123.338,64.002C113.399,48.509 90.21,36.462 64,36.462C37.789,36.462 14.601,48.509 4.664,64.002C14.601,79.494 37.789,91.536 64,91.536C90.21,91.536 113.399,79.494 123.338,64.002ZM41.705,57.709C41.141,59.709 40.839,61.82 40.839,64C40.839,72.652 45.593,80.203 52.63,84.179C34.798,81.692 20.025,73.594 13.679,64C18.889,56.123 29.779,49.255 43.378,45.672C45.632,42.734 49.178,40.839 53.163,40.839C59.965,40.839 65.488,46.361 65.488,53.163C65.488,59.966 59.965,65.488 53.163,65.488C47.966,65.488 43.516,62.264 41.705,57.709ZM75.37,84.179C82.407,80.203 87.161,72.652 87.161,64C87.161,55.348 82.407,47.797 75.37,43.821C93.202,46.308 107.975,54.406 114.321,64C107.975,73.594 93.202,81.692 75.37,84.179Z" style="fill:white;"/>
</svg>
